<?xml version="1.0" standalone="no"?>
<!DOCTYPE svg PUBLIC "-//W3C//DTD SVG 20010904//EN"
 "http://www.w3.org/TR/2001/REC-SVG-20010904/DTD/svg10.dtd">
<svg version="1.0" xmlns="http://www.w3.org/2000/svg"
 width="474.000000pt" height="360.000000pt" viewBox="0 0 474.000000 360.000000"
 preserveAspectRatio="xMidYMid meet">
<metadata>
Created by potrace 1.16, written by Peter Selinger 2001-2019
</metadata>
<g transform="translate(0.000000,360.000000) scale(0.100000,-0.100000)"
fill="#000000" stroke="none">
<path d="M2922 3428 c-171 -206 -300 -389 -312 -444 -11 -48 3 -110 33 -141
48 -52 230 -164 300 -184 55 -16 80 5 212 174 171 220 245 331 245 369 0 45
-27 93 -73 131 -108 87 -267 177 -314 177 -15 0 -43 -25 -91 -82z m198 11
c105 -57 200 -127 200 -147 0 -20 -54 -98 -184 -267 -137 -178 -186 -235 -202
-235 -51 0 -304 159 -304 190 0 25 258 376 343 468 17 17 40 32 51 32 12 0 55
-19 96 -41z m249 -236 c1 -39 -42 -103 -226 -340 -96 -125 -141 -175 -160
-179 -52 -13 -291 130 -333 198 -11 18 -18 34 -15 36 2 2 31 -15 65 -38 33
-23 98 -59 144 -81 68 -33 87 -38 108 -30 25 9 166 181 293 356 115 159 108
151 116 129 4 -10 8 -33 8 -51z"/>
<path d="M1635 3422 c-130 -68 -200 -115 -216 -144 -7 -13 -12 -92 -13 -210
l-1 -190 40 -34 c48 -41 289 -164 322 -164 45 0 320 153 349 194 11 16 14 54
13 161 -1 77 -4 165 -7 195 -6 50 -11 57 -54 90 -71 53 -270 160 -298 160 -14
0 -74 -26 -135 -58z m221 -73 c49 -49 90 -94 92 -98 4 -13 -201 -22 -291 -13
l-78 7 91 98 c51 53 93 97 95 97 1 0 42 -41 91 -91z m100 -155 c-11 -27 -167
-298 -180 -312 -11 -11 -23 3 -68 80 -67 112 -138 238 -138 244 0 2 88 4 196
4 176 0 196 -2 190 -16z m88 -144 c18 -58 36 -117 40 -132 7 -30 10 -29 -119
-47 -139 -20 -165 -22 -165 -14 0 4 29 56 64 116 35 59 76 132 92 162 26 49
30 53 42 38 7 -10 28 -65 46 -123z m-415 -12 c43 -73 84 -143 91 -155 8 -12
12 -24 10 -26 -6 -5 -112 7 -212 24 -40 6 -68 16 -68 23 0 11 59 196 82 255 4
13 11 21 14 18 3 -3 40 -65 83 -139z m-42 -198 c43 -6 97 -13 121 -16 l42 -5
0 -50 c0 -35 -4 -49 -14 -49 -16 0 -201 91 -231 114 -24 19 -18 19 82 6z m443
6 c0 -9 -227 -136 -245 -136 -3 0 -5 24 -5 54 l0 55 58 6 c31 3 80 10 107 14
59 10 85 12 85 7z"/>
<path d="M4115 3458 c-137 -48 -304 -140 -344 -190 -13 -16 -26 -48 -28 -72
-5 -38 2 -55 55 -153 85 -157 190 -321 212 -333 45 -24 135 0 273 72 109 58
153 102 163 164 4 30 2 61 -6 83 -27 80 -238 431 -259 431 -5 0 -15 2 -23 4
-7 3 -26 0 -43 -6z m78 -50 c32 -43 167 -268 201 -335 14 -29 26 -60 26 -70
-1 -21 -64 -70 -135 -105 -75 -37 -179 -72 -196 -66 -30 12 -261 410 -257 443
5 32 258 163 320 165 9 0 28 -15 41 -32z m-353 -226 c63 -122 190 -327 221
-355 23 -21 36 -26 57 -21 62 15 184 67 241 104 66 43 73 41 39 -10 -36 -52
-231 -157 -328 -176 -40 -8 -64 19 -156 172 -111 185 -144 249 -144 284 0 32
15 70 28 70 4 0 23 -30 42 -68z"/>
<path d="M4046 3272 c-4 -7 -2 -21 4 -33 7 -11 10 -22 8 -24 -18 -15 -53 -25
-68 -20 -33 10 -23 -18 20 -60 39 -38 41 -39 76 -26 19 7 37 11 38 9 1 -1 19
-31 40 -65 35 -59 56 -78 56 -52 0 6 -17 38 -37 71 l-37 60 24 18 c19 14 24
27 24 69 1 58 -5 61 -64 31 l-39 -20 -19 27 c-12 17 -21 22 -26 15z"/>
<path d="M490 3449 c-127 -20 -225 -42 -245 -55 -39 -25 -45 -57 -45 -230 0
-192 -1 -191 100 -338 90 -133 92 -134 247 -112 120 17 269 50 310 69 47 21
54 48 65 245 6 103 8 204 4 225 -9 47 -49 88 -152 155 -78 51 -80 52 -154 51
-41 -1 -100 -5 -130 -10z m219 -31 c45 -25 163 -109 158 -114 -1 -1 -79 -15
-172 -29 -94 -14 -195 -33 -227 -41 l-56 -14 -69 71 c-37 39 -69 74 -71 79 -5
13 69 30 218 50 176 24 170 24 219 -2z m-319 -442 c0 -124 -2 -226 -4 -226 -7
0 -135 195 -145 223 -12 32 -15 359 -4 371 4 4 40 -26 80 -67 l73 -74 0 -227z
m500 279 c18 -21 7 -373 -12 -412 -9 -19 -29 -33 -61 -45 -63 -24 -317 -70
-359 -66 -32 3 -33 5 -41 58 -12 82 -5 386 10 401 13 13 152 42 303 63 128 19
145 19 160 1z"/>
<path d="M4019 2257 c-69 -46 -89 -135 -43 -202 18 -27 22 -41 15 -48 -16 -16
-13 -42 4 -57 18 -15 19 -64 3 -127 -9 -36 -26 -62 -80 -116 -38 -39 -68 -78
-68 -90 0 -11 -9 -35 -21 -53 -32 -52 -23 -94 26 -121 83 -46 279 -57 410 -23
43 11 87 28 97 37 24 22 23 60 -4 103 -12 19 -21 45 -19 57 2 15 -19 45 -67
96 -52 56 -72 87 -81 120 -15 62 -14 102 4 117 17 14 20 46 5 55 -6 3 1 23 16
45 23 34 26 48 22 95 -3 40 -11 62 -29 81 -54 58 -131 71 -190 31z m142 -23
c31 -16 59 -66 59 -106 0 -37 -37 -88 -76 -104 -67 -28 -135 3 -158 71 -17 49
-6 91 34 128 35 32 93 36 141 11z m0 -366 c8 -73 30 -115 94 -178 30 -30 55
-63 55 -73 0 -35 -63 -51 -205 -52 -141 0 -225 20 -225 53 0 9 25 39 55 66 59
56 89 113 100 191 l6 50 57 -1 57 -2 6 -54z m-196 -324 c78 -18 184 -17 265 1
36 9 71 16 79 18 8 1 23 -13 34 -31 24 -40 15 -53 -51 -79 -38 -15 -77 -18
-202 -18 -138 0 -160 2 -202 22 -40 18 -48 27 -48 48 0 43 18 68 43 60 12 -4
49 -13 82 -21z"/>
<path d="M464 2251 c-54 -25 -84 -73 -84 -138 0 -28 6 -58 15 -69 8 -10 15
-22 15 -26 0 -4 -32 -24 -71 -44 -71 -37 -125 -90 -135 -132 -14 -53 43 -122
102 -122 l33 0 -50 -85 c-59 -98 -66 -141 -29 -180 29 -31 77 -45 151 -45 69
0 99 20 134 91 14 27 29 49 33 48 4 0 21 -21 37 -46 49 -76 73 -88 170 -88 92
0 125 16 125 62 0 27 -36 101 -86 181 -41 64 -43 75 -8 61 52 -19 114 18 114
69 0 34 -57 98 -126 142 -38 23 -70 44 -72 45 -2 2 4 25 14 52 32 91 -8 160
-121 214 -70 34 -104 36 -161 10z m108 -21 c80 -23 116 -122 66 -185 -28 -36
-18 -52 58 -88 66 -32 108 -68 131 -111 22 -41 5 -53 -52 -38 -82 22 -105 14
-105 -36 0 -9 27 -62 61 -117 67 -111 79 -143 58 -156 -19 -12 -106 -11 -129
1 -10 5 -37 43 -60 84 -22 41 -46 77 -53 79 -24 9 -48 -15 -82 -83 -19 -38
-44 -74 -54 -80 -38 -20 -151 -9 -151 14 0 7 29 61 65 122 73 121 83 147 65
169 -15 18 -36 19 -95 3 -120 -32 -62 78 78 148 37 19 70 41 73 49 3 8 -4 26
-15 41 -45 57 -18 149 53 180 38 16 42 16 88 4z"/>
<path d="M1696 2141 c-40 -27 -55 -57 -56 -113 0 -35 6 -54 25 -76 14 -17 25
-39 25 -49 0 -29 -55 -173 -100 -263 -37 -74 -40 -83 -28 -108 23 -49 79 -67
203 -67 122 0 177 18 204 65 12 23 9 33 -37 130 -28 58 -60 139 -73 181 l-22
76 27 36 c67 87 8 207 -100 207 -22 0 -52 -9 -68 -19z m138 -36 c54 -50 24
-151 -50 -169 -38 -10 -94 21 -111 62 -17 41 -4 93 30 117 34 24 99 19 131
-10z m-8 -251 c16 -64 45 -137 89 -223 19 -39 32 -76 30 -84 -3 -7 -20 -22
-38 -33 -47 -28 -237 -28 -284 1 -43 25 -42 45 7 147 23 46 52 119 66 163 l25
81 46 -1 46 -1 13 -50z"/>
<path d="M2853 2141 c-144 -49 -234 -164 -241 -308 -4 -64 -1 -80 26 -136 39
-84 90 -140 160 -174 153 -75 350 4 433 173 28 56 33 77 33 142 1 100 -32 171
-108 236 -99 85 -192 106 -303 67z m234 -47 c58 -47 86 -104 86 -179 0 -210
-238 -376 -418 -291 -27 13 -58 32 -67 42 -74 84 -63 250 23 348 75 85 149
117 261 114 68 -3 80 -6 115 -34z m148 -249 c0 -69 -5 -88 -30 -139 -50 -99
-149 -170 -253 -183 -58 -7 -150 17 -176 46 -18 20 -18 20 20 9 92 -25 221 18
304 101 67 67 94 129 98 226 l4 79 17 -29 c11 -21 16 -55 16 -110z"/>
<path d="M2888 2066 c-49 -13 -63 -21 -116 -70 -75 -68 -99 -170 -60 -245 92
-175 391 -44 391 172 0 42 -5 65 -19 84 -47 63 -112 83 -196 59z m122 -29 c36
-18 70 -74 70 -117 0 -58 -44 -134 -102 -177 -44 -32 -61 -38 -115 -41 -74 -5
-101 8 -127 61 -29 63 -14 137 41 198 68 75 170 108 233 76z"/>
<path d="M574 986 c-62 -27 -82 -91 -44 -139 11 -14 20 -29 20 -35 0 -5 -39
-12 -86 -15 -47 -3 -92 -11 -100 -18 -10 -8 -14 -36 -14 -100 0 -48 -4 -90 -8
-93 -5 -3 -21 4 -38 15 -42 27 -90 25 -119 -7 -53 -57 -36 -162 31 -190 34
-14 57 -10 96 18 26 19 33 4 38 -90 l5 -87 257 -3 c223 -2 258 0 272 14 12 12
16 36 16 103 0 109 -10 123 -70 96 -49 -22 -87 -14 -101 22 -27 71 47 131 109
87 12 -8 32 -14 45 -12 21 3 22 8 25 106 4 142 4 142 -113 142 -84 0 -95 2
-95 18 0 9 7 26 15 36 31 41 11 106 -40 131 -40 18 -60 18 -101 1z m104 -36
c25 -24 28 -66 7 -94 -22 -28 -19 -63 6 -77 13 -6 54 -10 103 -8 l81 4 3 -97
c1 -54 -1 -98 -6 -98 -4 0 -17 7 -28 15 -33 25 -82 19 -115 -14 -24 -24 -29
-38 -29 -76 0 -80 60 -116 131 -79 17 8 34 13 37 9 4 -4 7 -40 7 -81 0 -56 -4
-77 -15 -84 -8 -5 -118 -10 -246 -10 l-231 0 -6 86 c-8 114 -33 141 -87 94
-29 -25 -55 -25 -80 0 -53 53 -28 150 38 150 15 0 36 -7 46 -15 23 -18 62 -20
71 -4 4 6 7 47 6 91 -1 47 4 86 10 94 8 10 36 14 89 14 43 0 85 3 94 6 22 8
20 46 -4 77 -28 35 -25 71 6 96 34 27 84 27 112 1z"/>
<path d="M2716 944 c-227 -31 -221 -26 -212 -152 8 -118 52 -455 66 -504 6
-20 18 -39 28 -42 9 -3 67 -5 128 -4 61 0 126 -4 145 -11 19 -6 117 -22 217
-35 192 -26 221 -24 241 12 9 17 72 433 84 555 7 70 -9 84 -115 104 -59 10
-88 20 -88 29 0 22 -36 34 -122 41 -46 3 -92 12 -103 19 -25 18 -54 17 -269
-12z m265 -39 c10 -41 57 -402 65 -502 l6 -81 -38 -11 c-36 -10 -349 -51 -387
-51 -26 0 -35 29 -56 181 -41 295 -54 430 -43 441 15 15 305 57 381 55 63 -2
65 -3 72 -32z m190 -5 c18 -10 19 -24 19 -308 0 -219 -3 -301 -12 -310 -8 -8
-47 -12 -118 -11 -88 1 -98 3 -61 10 25 5 49 13 55 19 5 5 24 10 41 10 17 0
36 5 43 12 17 17 17 519 0 536 -7 7 -38 12 -70 12 -51 0 -58 2 -58 20 0 18 7
20 71 20 39 0 79 -5 90 -10z m146 -61 c38 -7 67 -17 70 -26 10 -25 -66 -578
-84 -606 -7 -11 -94 -5 -218 15 l-80 13 90 6 c50 4 106 4 125 2 24 -3 40 0 48
9 6 8 25 113 42 234 17 120 33 233 35 251 7 42 -12 59 -75 68 -40 6 -50 11
-50 26 0 22 10 23 97 8z m-193 -30 c8 -41 8 -363 0 -423 -5 -36 -11 -46 -25
-46 -11 0 -19 6 -19 13 0 21 -50 431 -56 460 -6 27 -5 27 44 27 47 0 50 -1 56
-31z m192 -42 c4 -4 -33 -296 -50 -392 -9 -49 -16 -93 -16 -97 0 -5 -9 -8 -21
-8 -15 0 -19 4 -15 16 3 9 6 124 6 256 l0 241 47 -7 c25 -3 48 -7 49 -9z"/>
<path d="M2755 884 c-159 -21 -175 -25 -184 -42 -4 -10 0 -79 10 -162 10 -80
23 -189 30 -243 17 -146 8 -142 212 -114 116 16 171 27 178 37 5 8 7 33 4 55
-3 22 -16 134 -31 250 -14 115 -30 215 -36 222 -13 16 -52 15 -183 -3z m165
-20 c0 -3 11 -89 24 -192 39 -297 39 -302 19 -302 -10 -1 -81 -9 -158 -19 -77
-10 -143 -16 -147 -12 -12 11 -68 490 -57 492 2 0 58 9 124 19 125 19 195 24
195 14z"/>
<path d="M3877 923 c-14 -17 -23 -67 -42 -259 -30 -286 -32 -435 -9 -458 21
-21 34 -24 218 -41 207 -19 290 -19 310 0 16 17 18 30 46 345 28 311 29 355 9
376 -21 20 -175 41 -374 50 -132 6 -141 6 -158 -13z m347 -29 c82 -7 155 -19
163 -26 17 -14 16 -35 -18 -413 -22 -256 -25 -271 -46 -279 -19 -8 -394 22
-444 35 -27 7 -39 16 -43 34 -11 42 27 519 50 627 11 53 8 53 338 22z"/>
<path d="M4053 682 c-81 -76 -93 -95 -93 -150 0 -50 35 -86 85 -86 42 0 43 -5
9 -45 -14 -17 -23 -35 -19 -41 3 -5 35 -10 71 -10 66 0 77 8 50 39 -7 9 -17
27 -21 39 -6 21 -5 23 13 13 77 -41 153 40 123 132 -7 19 -36 63 -66 97 -30
35 -55 67 -55 72 0 21 -31 2 -97 -60z"/>
<path d="M1445 844 c-19 -14 -20 -27 -20 -274 0 -247 1 -260 21 -287 46 -62
62 -65 312 -67 204 -1 230 1 255 17 15 10 33 30 38 45 7 16 11 119 12 253 1
257 -4 273 -78 309 -38 18 -62 20 -281 20 -197 -1 -242 -3 -259 -16z m517 -22
c10 -10 13 -68 12 -248 -1 -206 -3 -238 -18 -252 -15 -15 -46 -17 -251 -17
-173 0 -237 3 -246 12 -16 16 -24 322 -12 433 7 67 10 75 33 81 14 4 125 7
247 6 167 -2 225 -5 235 -15z m74 -120 c4 -37 4 -146 1 -242 -7 -236 12 -220
-268 -220 -179 0 -215 3 -247 17 -37 18 -35 18 200 23 210 4 239 7 255 23 16
16 18 43 21 260 3 207 5 239 17 224 7 -11 17 -49 21 -85z"/>
<path d="M1653 755 c-29 -20 -45 -78 -32 -113 15 -40 39 -62 86 -83 55 -23 80
-61 64 -95 -6 -13 -21 -28 -33 -33 -27 -10 -79 3 -94 24 -18 24 -46 19 -42 -7
4 -32 63 -68 110 -68 32 0 47 7 74 34 62 62 39 138 -54 182 -57 27 -78 57 -68
98 9 36 49 45 84 19 47 -35 73 -3 30 37 -26 24 -93 27 -125 5z"/>
</g>
</svg>
